<mxfile host="app.diagrams.net" modified="2021-07-28T10:01:23.385Z" agent="5.0 (Windows NT 10.0; Win64; x64) AppleWebKit/537.36 (KHTML, like Gecko) Chrome/92.0.4515.107 Safari/537.36" etag="XSINpC9EsQrUxhAmDZSF" version="14.9.2" type="github">
  <diagram id="H6pyBNZ6TsDvY51sgaEQ" name="Page-1">
    <mxGraphModel dx="782" dy="492" grid="1" gridSize="10" guides="1" tooltips="1" connect="1" arrows="1" fold="1" page="1" pageScale="1" pageWidth="827" pageHeight="1169" math="0" shadow="0">
      <root>
        <mxCell id="0" />
        <mxCell id="1" parent="0" />
        <mxCell id="gjUBNejyAww0I9BJgPzB-1" value="" style="rounded=0;whiteSpace=wrap;html=1;fillColor=#ffe6cc;strokeColor=#d79b00;" vertex="1" parent="1">
          <mxGeometry x="180" y="230" width="120" height="270" as="geometry" />
        </mxCell>
        <mxCell id="gjUBNejyAww0I9BJgPzB-2" value="tagStartHTML" style="text;html=1;strokeColor=#b85450;fillColor=#f8cecc;align=center;verticalAlign=middle;whiteSpace=wrap;rounded=0;" vertex="1" parent="1">
          <mxGeometry x="180" y="460" width="120" height="40" as="geometry" />
        </mxCell>
        <mxCell id="gjUBNejyAww0I9BJgPzB-4" value="tagStartBody" style="text;html=1;strokeColor=#6c8ebf;fillColor=#dae8fc;align=center;verticalAlign=middle;whiteSpace=wrap;rounded=0;" vertex="1" parent="1">
          <mxGeometry x="180" y="420" width="120" height="40" as="geometry" />
        </mxCell>
        <mxCell id="gjUBNejyAww0I9BJgPzB-7" value="tagStartDiv" style="text;html=1;strokeColor=#d6b656;fillColor=#fff2cc;align=center;verticalAlign=middle;whiteSpace=wrap;rounded=0;" vertex="1" parent="1">
          <mxGeometry x="180" y="380" width="120" height="40" as="geometry" />
        </mxCell>
        <mxCell id="gjUBNejyAww0I9BJgPzB-18" value="" style="rounded=0;whiteSpace=wrap;html=1;fillColor=#ffe6cc;strokeColor=#d79b00;" vertex="1" parent="1">
          <mxGeometry x="410" y="230" width="120" height="270" as="geometry" />
        </mxCell>
        <mxCell id="gjUBNejyAww0I9BJgPzB-19" value="tagStartHTML" style="text;html=1;strokeColor=#b85450;fillColor=#f8cecc;align=center;verticalAlign=middle;whiteSpace=wrap;rounded=0;" vertex="1" parent="1">
          <mxGeometry x="410" y="460" width="120" height="40" as="geometry" />
        </mxCell>
        <mxCell id="gjUBNejyAww0I9BJgPzB-20" value="tagStartBody" style="text;html=1;strokeColor=#6c8ebf;fillColor=#dae8fc;align=center;verticalAlign=middle;whiteSpace=wrap;rounded=0;" vertex="1" parent="1">
          <mxGeometry x="410" y="420" width="120" height="40" as="geometry" />
        </mxCell>
      </root>
    </mxGraphModel>
  </diagram>
</mxfile>
